<svg width="85" height="20" viewBox="0 0 85 20" fill="none" xmlns="http://www.w3.org/2000/svg">
    <path fill-rule="evenodd" clip-rule="evenodd"
          d="M4.99582 4.72052C5.1199 4.01309 5.35056 3.51498 5.68779 3.22618C6.03042 2.93575 6.46754 2.78166 6.91606 2.79322C7.39727 2.79322 7.75605 2.93754 7.99239 3.22618C8.22873 3.51482 8.28501 4.01294 8.16124 4.72052L6.31044 15.2788C6.18636 15.9868 5.95554 16.4849 5.618 16.7731C5.27548 17.0637 4.83829 17.2179 4.38973 17.2061C3.9082 17.2061 3.54943 17.0618 3.3134 16.7731C3.07738 16.4845 3.02125 15.9864 3.14502 15.2788L4.99582 4.72052ZM0.125064 15.0832C-0.152714 16.6663 0.0322359 17.8813 0.679915 18.7283C1.32759 19.5753 2.40106 19.999 3.90033 19.9993C5.39983 19.9993 6.62187 19.5756 7.56644 18.7283C8.51101 17.881 9.12203 16.666 9.39949 15.0832L11.1817 4.91597C11.459 3.33351 11.2739 2.11847 10.6263 1.27084C9.97882 0.423221 8.90562 -0.000392436 7.40675 2.72791e-07C5.90725 2.72791e-07 4.68521 0.423614 3.74064 1.27084C2.79607 2.11807 2.18505 3.33312 1.90759 4.91597L0.125064 15.0832ZM18.1956 0.223491H13.9472L10.5198 19.7758H13.1858L15.6093 5.94954L15.4627 19.7758H18.3504L22.9184 5.75409L20.4602 19.7758H23.3478L26.7753 0.223491H22.5273L18.0111 14.1061L18.1956 0.223491ZM31.5703 11.6756H32.9586L32.3271 15.2788C32.203 15.9868 31.9731 16.4802 31.6372 16.7592C31.2921 17.0418 30.8571 17.1905 30.4117 17.1782C29.9301 17.1782 29.5704 17.0385 29.3327 16.7592C29.0949 16.4799 29.0379 15.9864 29.1617 15.2788L31.0125 4.72052C31.1366 4.01309 31.3673 3.51498 31.7046 3.22618C32.0471 2.93573 32.4842 2.78164 32.9327 2.79322C33.4139 2.79322 33.7728 2.93754 34.0092 3.22618C34.2456 3.51482 34.3018 4.01294 34.1779 4.72052L33.8105 6.81547H36.6982L37.0315 4.91609C37.3086 3.33363 37.1374 2.11859 36.5177 1.27096C35.8981 0.42334 34.8387 -0.000273789 33.3394 0.00011892C31.8399 0.00011892 30.6318 0.423733 29.715 1.27096C28.7982 2.11819 28.2011 3.33343 27.9237 4.91668L26.1415 15.0839C25.8639 16.667 26.035 17.882 26.6547 18.729C27.2745 19.576 28.3341 19.9997 29.8336 20C31.3329 20 32.5409 19.5763 33.4575 18.729C34.3741 17.8817 34.9712 16.6667 35.2488 15.0839L36.3356 8.88308H32.0596L31.5703 11.6756ZM39.8221 15.4464L41.4494 8.37966L42.8789 0.223491H39.825L38.3951 8.37966L37.5452 15.4464H39.8221ZM36.972 16.8151L36.4531 19.7758H39.3965L39.9152 16.8151H36.972ZM47.1164 4.72052C47.2405 4.01309 47.4712 3.51498 47.8084 3.22618C48.151 2.93571 48.5882 2.78162 49.0367 2.79322C49.5177 2.79322 49.8765 2.93754 50.113 3.22618C50.3495 3.51482 50.4057 4.01294 50.2816 4.72052L48.431 15.2788C48.3069 15.9868 48.076 16.4849 47.7385 16.7731C47.396 17.0637 46.9589 17.2179 46.5104 17.2061C46.0288 17.2061 45.6699 17.0618 45.4339 16.7731C45.1979 16.4845 45.1418 15.9864 45.2656 15.2788L47.1164 4.72052ZM42.2456 15.0832C41.9679 16.6663 42.1529 17.8813 42.8004 18.7283C43.4479 19.5753 44.5215 19.999 46.021 19.9993C47.5203 19.9993 48.7423 19.5756 49.6871 18.7283C50.6318 17.881 51.2428 16.666 51.5201 15.0832L53.3015 4.91668C53.5787 3.33422 53.3936 2.11918 52.7461 1.27155C52.0987 0.423929 51.0255 0.000312254 49.5265 0.000704963C48.0272 0.000704963 46.8052 0.424322 45.8604 1.27155C44.9157 2.11878 44.3047 3.33383 44.0274 4.91668L42.2456 15.0832ZM60.3164 0.223491H56.068L52.6405 19.7758H55.3061L57.7296 5.94954L57.5829 19.7758H60.4706L65.0386 5.75409L62.5808 19.7758H65.4686L68.8959 0.223491H64.6477L60.1318 14.1061L60.3164 0.223491ZM73.6909 11.6756H75.0792L74.4475 15.2788C74.3234 15.9868 74.0935 16.4802 73.7578 16.7592C73.4126 17.0418 72.9775 17.1905 72.5321 17.1782C72.0505 17.1782 71.6909 17.0385 71.4531 16.7592C71.2154 16.4799 71.1584 15.9864 71.2822 15.2788L73.133 4.72052C73.2571 4.01309 73.4877 3.51498 73.825 3.22618C74.1676 2.93573 74.6047 2.78164 75.0532 2.79322C75.5343 2.79322 75.8931 2.93754 76.1296 3.22618C76.3661 3.51482 76.4223 4.01294 76.2983 4.72052L75.9309 6.81547H78.8186L79.1522 4.91668C79.4295 3.33422 79.2583 2.11918 78.6386 1.27155C78.0189 0.423929 76.9594 0.000312254 75.4601 0.000704963C73.9608 0.000704963 72.7527 0.424322 71.8357 1.27155C70.9188 2.11878 70.3217 3.33383 70.0444 4.91668L68.2621 15.0839C67.9845 16.667 68.1556 17.882 68.7754 18.729C69.3952 19.576 70.4548 19.9997 71.9542 20C73.4535 20 74.6615 19.5763 75.5781 18.729C76.4947 17.8817 77.0919 16.6667 77.3696 15.0839L78.4564 8.88308H74.1803L73.6909 11.6756ZM81.9427 15.4464L83.5701 8.37966L85 0.223491H81.9457L80.5157 8.37966L79.6658 15.4464H81.9427ZM79.0928 16.8151L78.5739 19.7758H81.5171L82.036 16.8151H79.0928Z"
          fill="#161616"/>
</svg>
